<svg width="119.898071" height="14.399414" viewBox="0 0 119.898 14.3994" fill="none" xmlns="http://www.w3.org/2000/svg" xmlns:xlink="http://www.w3.org/1999/xlink">
	<desc>
			Created with Pixso.
	</desc>
	<defs>
		<linearGradient x1="121.120110" y1="7.199219" x2="-1.879890" y2="7.199219" id="paint_linear_3_11_0" gradientUnits="userSpaceOnUse">
			<stop stop-color="#2D1BD2"/>
			<stop offset="1.000000" stop-color="#E5097F"/>
		</linearGradient>
	</defs>
	<path id="EasyPlace" d="M30.15 14.09Q31.39 14.39 32.72 14.39Q34.56 14.39 35.84 13.84Q37.12 13.28 37.75 12.34Q38.01 11.94 38.17 11.5Q38.38 10.9 38.38 10.23Q38.38 8.97 37.76 8.19Q37.71 8.13 37.66 8.08Q37.32 7.69 36.92 7.41Q36.48 7.09 35.95 6.88Q34.96 6.49 33.39 6.13Q32.26 5.85 31.59 5.63Q30.93 5.41 30.5 5.03Q30.32 4.87 30.21 4.66Q30.07 4.39 30.07 4.05Q30.07 3.68 30.22 3.37Q30.4 2.97 30.82 2.68Q31.57 2.15 33.12 2.15Q34.05 2.15 35.05 2.44Q35.2 2.48 35.35 2.53Q36.19 2.8 36.97 3.25L37.79 1.24Q36.9 0.63 35.66 0.32Q35 0.15 34.34 0.07Q33.74 0 33.14 0Q31.29 0 30.03 0.56Q28.76 1.11 28.13 2.07Q27.85 2.48 27.7 2.93Q27.5 3.52 27.5 4.17Q27.5 5.49 28.14 6.29Q28.17 6.33 28.2 6.37Q28.62 6.83 29.12 7.16Q29.49 7.39 29.9 7.55Q30.89 7.93 32.5 8.32Q33.63 8.59 34.29 8.81Q34.96 9.03 35.39 9.42Q35.58 9.6 35.69 9.82Q35.82 10.08 35.82 10.41Q35.82 10.72 35.71 10.98Q35.53 11.42 35.04 11.74Q34.27 12.24 32.72 12.24Q32.63 12.24 32.55 12.23Q31.37 12.21 30.21 11.81Q28.96 11.37 28.1 10.69L27.19 12.71Q28.08 13.48 29.59 13.94Q29.86 14.02 30.15 14.09ZM98.05 13.73Q99.54 14.39 101.33 14.39Q103.05 14.39 104.48 13.79Q105.42 13.4 106.16 12.78Q106.56 12.45 106.9 12.06L105.22 10.45Q104.42 11.33 103.43 11.74Q102.53 12.11 101.48 12.11Q100.2 12.11 99.16 11.62Q99.03 11.56 98.89 11.48Q98.29 11.15 97.82 10.67Q97.41 10.26 97.12 9.74Q97.02 9.57 96.94 9.39Q96.48 8.4 96.48 7.19Q96.48 5.99 96.94 5.01Q97.02 4.83 97.12 4.66Q97.42 4.12 97.84 3.7Q98.3 3.23 98.89 2.91Q99.03 2.83 99.16 2.77Q100.2 2.28 101.48 2.28Q102.55 2.28 103.46 2.66Q104.43 3.07 105.22 3.92L106.9 2.33Q106.53 1.91 106.1 1.56Q105.38 0.97 104.49 0.6Q103.07 0 101.35 0Q99.58 0 98.09 0.65Q97.8 0.78 97.53 0.93Q96.57 1.45 95.84 2.19Q95.27 2.78 94.84 3.5Q94.59 3.9 94.41 4.34Q93.85 5.65 93.85 7.19Q93.85 8.78 94.43 10.12Q94.6 10.52 94.83 10.89Q95.24 11.59 95.79 12.16Q96.53 12.93 97.51 13.47Q97.77 13.61 98.05 13.73ZM10.49 14.19L10.49 12.02L2.6 12.02L2.6 8.15L9.36 8.15L9.36 6.02L2.6 6.02L2.6 2.37L10.21 2.37L10.21 0.2L0 0.2L0 14.19L10.49 14.19ZM14.09 14.19L15.48 10.95L22.48 10.95L23.87 14.19L26.59 14.19L20.27 0.2L17.72 0.2L11.42 14.19L14.09 14.19ZM46.7 14.19L46.7 9.25L52.17 0.2L49.62 0.2L45.47 7.02L41.37 0.2L38.59 0.2L44.1 9.29L44.1 14.19L46.7 14.19ZM62.6 0.8Q61.25 0.2 59.44 0.2L53.68 0.2L53.68 14.19L56.28 14.19L56.28 10.16L59.44 10.16Q61.25 10.16 62.6 9.56Q63.68 9.08 64.35 8.27Q64.52 8.06 64.67 7.83Q64.76 7.68 64.84 7.53Q65.39 6.5 65.39 5.18Q65.39 3.74 64.76 2.67Q64.72 2.59 64.67 2.51Q64.54 2.31 64.39 2.12Q63.71 1.29 62.6 0.8ZM70.6 0.2L68 0.2L68 14.19L77.92 14.19L77.92 11.99L70.6 11.99L70.6 0.2ZM80.77 14.19L82.16 10.95L89.16 10.95L90.55 14.19L93.27 14.19L86.95 0.2L84.4 0.2L78.1 14.19L80.77 14.19ZM119.89 14.19L119.89 12.02L112 12.02L112 8.15L118.76 8.15L118.76 6.02L112 6.02L112 2.37L119.62 2.37L119.62 0.2L109.4 0.2L109.4 14.19L119.89 14.19ZM61.89 7.24Q61.01 7.95 59.31 7.95L56.28 7.95L56.28 2.39L59.31 2.39Q61.01 2.39 61.89 3.12Q62.14 3.32 62.32 3.57Q62.78 4.21 62.78 5.18Q62.78 6.13 62.33 6.77Q62.15 7.03 61.89 7.24ZM18.98 2.79L21.61 8.92L16.35 8.92L18.98 2.79ZM85.66 2.79L88.29 8.92L83.03 8.92L85.66 2.79Z" fill="url(#paint_linear_3_11_0)" fill-opacity="1.000000" fill-rule="evenodd"/>
</svg>
