<svg width="137.000000" height="25.000000" viewBox="0 0 137 25" fill="none" xmlns="http://www.w3.org/2000/svg" xmlns:xlink="http://www.w3.org/1999/xlink">
	<desc>
			Created with Pixso.
	</desc>
	<defs/>
	<path id="Звезда 1" d="M12.5 0L9.69 8.63L0.61 8.63L7.95 13.97L5.15 22.61L12.5 17.27L19.84 22.61L17.04 13.97L24.38 8.63L15.3 8.63L12.5 0Z" fill="#C00469" fill-opacity="1.000000" fill-rule="nonzero"/>
	<path id="Звезда 2" d="M40.5 0L37.69 8.63L28.61 8.63L35.95 13.97L33.15 22.61L40.5 17.27L47.84 22.61L45.04 13.97L52.38 8.63L43.3 8.63L40.5 0Z" fill="#C00469" fill-opacity="1.000000" fill-rule="nonzero"/>
	<path id="Звезда 3" d="M68.5 0L65.69 8.63L56.61 8.63L63.95 13.97L61.15 22.61L68.5 17.27L75.84 22.61L73.04 13.97L80.38 8.63L71.3 8.63L68.5 0Z" fill="#C00469" fill-opacity="1.000000" fill-rule="nonzero"/>
	<path id="Звезда 4" d="M96.5 0L93.69 8.63L84.61 8.63L91.95 13.97L89.15 22.61L96.5 17.27L103.84 22.61L101.04 13.97L108.38 8.63L99.3 8.63L96.5 0Z" fill="#C00469" fill-opacity="1.000000" fill-rule="nonzero"/>
	<path id="Звезда 5" d="M124.5 0L121.69 8.63L112.61 8.63L119.95 13.97L117.15 22.61L124.5 17.27L131.84 22.61L129.04 13.97L136.38 8.63L127.3 8.63L124.5 0Z" fill="#C00469" fill-opacity="1.000000" fill-rule="nonzero"/>
</svg>
